<svg id="calendar" xmlns="http://www.w3.org/2000/svg" width="23" height="23" viewBox="0 0 23 23">
  <path id="Path_21" data-name="Path 21" d="M0,18.936A4.886,4.886,0,0,0,4.792,23.9H18.208A4.886,4.886,0,0,0,23,18.936V10H0Zm16.292-4.468a1.49,1.49,0,1,1-1.437,1.489A1.464,1.464,0,0,1,16.292,14.468Zm-4.792,0a1.49,1.49,0,1,1-1.437,1.489A1.464,1.464,0,0,1,11.5,14.468Zm-4.792,0a1.49,1.49,0,1,1-1.437,1.489,1.464,1.464,0,0,1,1.437-1.489Z" transform="translate(0 -0.9)" fill="#a89887"/>
  <path id="Path_22" data-name="Path 22" d="M18.208,1.986H17.25V.993a.959.959,0,1,0-1.917,0v.993H7.667V.993a.959.959,0,1,0-1.917,0v.993H4.792A4.886,4.886,0,0,0,0,6.95v.993H23V6.95A4.886,4.886,0,0,0,18.208,1.986Z" fill="#a89887"/>
</svg>
