<svg id="copyright" xmlns="http://www.w3.org/2000/svg" width="24.553" height="24.553" viewBox="0 0 24.553 24.553">
  <path id="Path_23" data-name="Path 23" d="M12.277,0A12.277,12.277,0,1,0,24.553,12.277,12.277,12.277,0,0,0,12.277,0Zm0,21.484a9.207,9.207,0,1,1,9.207-9.207A9.207,9.207,0,0,1,12.277,21.484Z" fill="#a89887"/>
  <path id="Path_24" data-name="Path 24" d="M119.9,115.791a1.535,1.535,0,0,0,2.17-2.171,6.925,6.925,0,1,0,0,9.8,1.535,1.535,0,1,0-2.17-2.171h0a3.859,3.859,0,1,1,0-5.457Z" transform="translate(-104.968 -106.242)" fill="#a89887"/>
</svg>
