<svg width="26" height="26" viewBox="0 0 26 26" fill="none" xmlns="http://www.w3.org/2000/svg">
<path d="M22.75 3.25H3.25C1.45488 3.25 0 4.70488 0 6.5V19.5C0 21.2951 1.45488 22.75 3.25 22.75H22.75C24.5451 22.75 26 21.2951 26 19.5V6.5C26 4.70488 24.5426 3.25 22.75 3.25ZM3.25 5.6875H22.75C23.198 5.6875 23.5625 6.05201 23.5625 6.5V7.62531L15.0922 14.6382C13.9146 15.6173 12.0788 15.6168 10.9043 14.639L2.4375 7.62734V6.5C2.4375 6.05312 2.80211 5.6875 3.25 5.6875ZM22.75 20.3125H3.25C2.80201 20.3125 2.4375 19.948 2.4375 19.5V10.8012L9.34883 16.5598C10.3746 17.4078 11.6695 17.875 13 17.875C14.3305 17.875 15.6279 17.4084 16.6547 16.5557L23.5625 10.8012V19.5C23.5625 19.9469 23.1969 20.3125 22.75 20.3125Z" fill="#A89887"/>
</svg>
