<svg xmlns="http://www.w3.org/2000/svg" width="23" height="23" viewBox="0 0 23 23">
  <path id="hastag" d="M21.563,8.625a1.437,1.437,0,1,0,0-2.875H18.086l.587-4.109a1.438,1.438,0,0,0-2.846-.406L15.182,5.75H9.461l.587-4.109A1.438,1.438,0,0,0,7.2,1.234L6.557,5.75H2.4a1.437,1.437,0,1,0,0,2.875h3.75l-.821,5.75H1.438a1.437,1.437,0,1,0,0,2.875H4.914l-.587,4.109a1.438,1.438,0,0,0,2.846.406l.645-4.516h5.721l-.587,4.109a1.438,1.438,0,0,0,2.846.406l.645-4.516H20.6a1.437,1.437,0,1,0,0-2.875h-3.75l.821-5.75Zm-7.613,5.75H8.229l.821-5.75h5.72Z" transform="translate(0 0)" fill="#a89887"/>
</svg>
