<svg width="25" height="26" viewBox="0 0 25 26" fill="none" xmlns="http://www.w3.org/2000/svg">
<path d="M23.9203 10.0798L12.6052 1.16193C12.4714 1.05639 12.3056 0.999569 12.1352 1.00081C11.9648 1.00205 11.7999 1.06128 11.6677 1.16875L0.483464 10.2504C0.36281 10.3486 0.2757 10.482 0.234202 10.6319C0.192703 10.7819 0.198872 10.941 0.251852 11.0873C0.304832 11.2336 0.402001 11.3598 0.529897 11.4484C0.657792 11.537 0.810082 11.5837 0.965666 11.5819L2.46563 11.571L2.55841 24.3206C2.55985 24.5196 2.64026 24.7097 2.78193 24.8494C2.9236 24.989 3.11494 25.0666 3.31384 25.0652L21.3134 24.9342C21.5123 24.9327 21.7025 24.8523 21.8421 24.7107C21.9817 24.569 22.0593 24.3777 22.0579 24.1787L21.9651 11.4291L23.4651 11.4182C23.62 11.4162 23.7705 11.3662 23.8959 11.2752C24.0213 11.1841 24.1154 11.0565 24.1653 10.9098C24.2152 10.7631 24.2185 10.6045 24.1746 10.4559C24.1307 10.3073 24.0419 10.1759 23.9203 10.0798ZM13.8027 23.4888L10.8027 23.5106L10.7591 17.5108L13.759 17.489L13.8027 23.4888ZM21.2042 9.93458C21.0053 9.93603 20.8151 10.0164 20.6755 10.1581C20.5359 10.2998 20.4582 10.4911 20.4597 10.69L20.5525 23.4397L15.3026 23.4779L15.2535 16.7281C15.252 16.5292 15.1716 16.339 15.03 16.1993C14.8883 16.0597 14.697 15.9821 14.4981 15.9835L9.99817 16.0163C9.79927 16.0177 9.60908 16.0981 9.46946 16.2398C9.32983 16.3815 9.2522 16.5728 9.25365 16.7717L9.30277 23.5215L4.05291 23.5598L3.96559 11.5601L16.7152 11.4673L16.7043 9.96733L3.09219 10.0664L12.1514 2.71027L21.3167 9.93376L21.2042 9.93458Z" fill="#BEAA93"/>
</svg>
